<svg width="512" height="512" viewBox="0 0 512 512" fill="none" xmlns="http://www.w3.org/2000/svg">
<path d="M470.001 479H366.219L261.654 368.233C289.257 365.165 314.276 353.768 334.129 336.605C362.139 312.429 379.816 276.788 379.816 237.067C379.816 200.178 363.907 164.436 336.44 139.585C295.138 102.191 227.151 94.4021 179.186 123.535C139.957 147.408 116.195 191.951 115.753 237.303C115.413 271.898 129.011 305.348 153.282 330.165C172.829 350.16 198.596 363.31 226.335 367.525L293.88 435.806C278.719 439.347 262.946 441.201 246.731 441.201C135.062 441.201 41.4093 348.879 41.0013 238.011C40.5934 126.873 134.144 33 246.765 33C360.406 33 452.529 124.378 452.529 237.101C452.529 296.952 426.523 350.834 385.153 388.161L470.001 479.034V479Z" fill="white"/>
</svg>
